Coordinates
version=1
nRows=38
nColumns=12
inDegrees=yes

Units are S.I. units (second, meters, Newtons, ...)
Angles are in degrees

endheader
time	SC_y	SC_z	SC_x	AC_y	AC_z	AC_x	GH_y	GH_z	GH_yy	EL_x	PS_y
       0.0              -40.53          4.438          21.33          68.25            8.0          -3.97         -81.46          79.35         -69.34          33.96          74.18
    0.0264              -40.53          4.438          21.33          68.24          7.999         -3.971         -81.44          79.34         -69.31          33.97          74.19
    0.0528              -40.52          4.437          21.33          68.24          7.997         -3.972         -81.43          79.32         -69.27          33.98           74.2
    0.0792              -40.52          4.437          21.33          68.23          7.995         -3.972         -81.41          79.31         -69.24          33.98          74.21
    0.1056              -40.52          4.437          21.33          68.23          7.993         -3.973         -81.39          79.29         -69.21          33.99          74.22
     0.132              -40.52          4.436          21.32          68.22          7.991         -3.974         -81.37          79.28         -69.17           34.0          74.23
    0.1584              -40.52          4.436          21.32          68.22          7.989         -3.974         -81.34          79.26         -69.13          34.01          74.24
    0.1848              -40.51          4.435          21.32          68.21          7.987         -3.975         -81.32          79.24         -69.08          34.02          74.26
    0.2112              -40.51          4.435          21.32           68.2          7.984         -3.976         -81.29          79.22         -69.04          34.03          74.27
    0.2376              -40.51          4.434          21.32          68.19          7.982         -3.977         -81.26           79.2         -68.99          34.05          74.29
     0.264               -40.5          4.434          21.32          68.19          7.979         -3.978         -81.23          79.18         -68.93          34.06           74.3
    0.2904               -40.5          4.433          21.32          68.18          7.976         -3.979          -81.2          79.15         -68.87          34.07          74.32
    0.3168               -40.5          4.432          21.31          68.17          7.973          -3.98         -81.17          79.12         -68.81          34.09          74.34
    0.3432              -40.49          4.432          21.31          68.16          7.969         -3.982         -81.13          79.09         -68.74          34.11          74.36
    0.3696              -40.49          4.431          21.31          68.15          7.965         -3.983         -81.09          79.06         -68.67          34.12          74.39
     0.396              -40.48           4.43          21.31          68.13          7.961         -3.985         -81.04          79.03         -68.59          34.14          74.41
    0.4224              -40.48          4.429          21.31          68.12          7.957         -3.986         -80.99          78.99         -68.51          34.16          74.44
    0.4488              -40.47          4.428           21.3           68.1          7.952         -3.988         -80.94          78.95         -68.41          34.19          74.47
    0.4752              -40.47          4.427           21.3          68.09          7.946          -3.99         -80.88           78.9         -68.31          34.21           74.5
    0.5016              -40.46          4.426           21.3          68.07           7.94         -3.992         -80.82          78.86          -68.2          34.24          74.54
     0.528              -40.45          4.425          21.29          68.05          7.934         -3.994         -80.75           78.8         -68.08          34.27          74.57
    0.5544              -40.45          4.423          21.29          68.03          7.927         -3.997         -80.67          78.74         -67.94           34.3          74.62
    0.5808              -40.44          4.422          21.29          68.01          7.919           -4.0         -80.59          78.68         -67.79          34.34          74.66
    0.6072              -40.43           4.42          21.28          67.98           7.91         -4.003          -80.5          78.61         -67.62          34.38          74.72
    0.6336              -40.42          4.418          21.28          67.95            7.9         -4.006         -80.39          78.53         -67.44          34.42          74.77
      0.66              -40.41          4.416          21.27          67.92           7.89          -4.01         -80.28          78.44         -67.24          34.48          74.84
    0.6864              -40.39          4.413          21.26          67.88          7.877         -4.015         -80.15          78.34         -67.01          34.53          74.91
    0.7128              -40.38          4.411          21.26          67.84          7.864          -4.02          -80.0          78.22         -66.75           34.6          74.99
    0.7392              -40.36          4.407          21.25           67.8          7.848         -4.025         -79.84           78.1         -66.45          34.67          75.08
    0.7656              -40.34          4.404          21.24          67.74          7.831         -4.031         -79.65          77.95         -66.12          34.75          75.19
     0.792              -40.32            4.4          21.23          67.69          7.811         -4.039         -79.44          77.79         -65.74          34.84          75.31
    0.8184              -40.29          4.395          21.22          67.62          7.788         -4.047         -79.19           77.6         -65.31          34.95          75.45
    0.8448              -40.26           4.39           21.2          67.54          7.761         -4.056         -78.91          77.38         -64.81          35.07           75.6
    0.8712              -40.23          4.384          21.19          67.45          7.731         -4.068         -78.58          77.13         -64.22          35.21          75.79
    0.8976              -40.19          4.377          21.17          67.34          7.695          -4.08         -78.19          76.83         -63.54          35.38           76.0
     0.924              -40.14          4.368          21.14          67.21          7.652         -4.096         -77.74          76.48         -62.73          35.58          76.26
    0.9504              -40.09          4.358          21.12          67.06          7.602         -4.114          -77.2          76.06         -61.78          35.81          76.56
    0.9768              -40.02          4.346          21.09          66.88          7.541         -4.136         -76.55          75.56         -60.63          36.09          76.92
